HIERARCHY
ROOT Hips
{
	OFFSET	0.00	0.00	0.00
	CHANNELS 6 Xposition Yposition Zposition Zrotation Xrotation Yrotation
	JOINT LeftUpLeg
	{
		OFFSET	 0.126116	-0.065224	 0.014019
		CHANNELS 3 Zrotation Xrotation Yrotation
		JOINT LeftLeg
		{
			OFFSET	 0.000000	 0.569914	 0.000000
			CHANNELS 3 Zrotation Xrotation Yrotation
			JOINT LeftFoot
			{
				OFFSET	 0.000000	 0.544423	 0.000000
				CHANNELS 3 Zrotation Xrotation Yrotation
				JOINT LeftToeBase
				{
					OFFSET	 0.000000	 0.207117	 0.000000
					CHANNELS 3 Zrotation Xrotation Yrotation
					End Site
					{
						OFFSET	 0.000000	 0.207117	 0.000000
					}
				}
			}
		}
	}
	JOINT RightUpLeg
	{
		OFFSET	-0.124023	-0.065224	 0.008373
		CHANNELS 3 Zrotation Xrotation Yrotation
		JOINT RightLeg
		{
			OFFSET	 0.000000	 0.570047	 0.000000
			CHANNELS 3 Zrotation Xrotation Yrotation
			JOINT RightFoot
			{
				OFFSET	 0.000000	 0.544354	 0.000000
				CHANNELS 3 Zrotation Xrotation Yrotation
				JOINT RightToeBase
				{
					OFFSET	 0.000000	 0.207540	 0.000000
					CHANNELS 3 Zrotation Xrotation Yrotation
					End Site
					{
						OFFSET	 0.000000	 0.207540	 0.000000
					}
				}
			}
		}
	}
	JOINT Spine
	{
		OFFSET	 0.000184	 0.117403	 0.007763
		CHANNELS 3 Zrotation Xrotation Yrotation
		JOINT Spine1
		{
			OFFSET	 0.000000	 0.137269	 0.000000
			CHANNELS 3 Zrotation Xrotation Yrotation
			JOINT Spine2
			{
				OFFSET	 0.000000	 0.156879	 0.000000
				CHANNELS 3 Zrotation Xrotation Yrotation
				JOINT LeftShoulder
				{
					OFFSET	 0.080501	 0.160143	 0.002496
					CHANNELS 3 Zrotation Xrotation Yrotation
					JOINT LeftArm
					{
						OFFSET	 0.000000	 0.164363	 0.000000
						CHANNELS 3 Zrotation Xrotation Yrotation
						JOINT LeftForeArm
						{
							OFFSET	 0.000000	 0.364576	 0.000000
							CHANNELS 3 Zrotation Xrotation Yrotation
							JOINT LeftHand
							{
								OFFSET	 0.000000	 0.360812	 0.000000
								CHANNELS 3 Zrotation Xrotation Yrotation
								JOINT LeftHandIndex1
								{
									OFFSET	 0.000000	 0.086006	 0.000000
									CHANNELS 3 Zrotation Xrotation Yrotation
									JOINT LeftHandIndex2
									{
										OFFSET	 0.000000	 0.047237	 0.000000
										CHANNELS 3 Zrotation Xrotation Yrotation
										JOINT LeftHandIndex3
										{
											OFFSET	-0.004284	 0.038165	 0.000551
											CHANNELS 3 Zrotation Xrotation Yrotation
											End Site
											{
												OFFSET	-0.004284	 0.038165	 0.000551
											}
										}
									}
								}
							}
						}
					}
				}
				JOINT Neck
				{
					OFFSET	 0.000000	 0.176489	 0.000000
					CHANNELS 3 Zrotation Xrotation Yrotation
					JOINT Head
					{
						OFFSET	 0.000000	 0.077941	 0.001747
						CHANNELS 3 Zrotation Xrotation Yrotation
						End Site
						{
							OFFSET	 0.000000	 0.077941	 0.001747
						}
					}
				}
				JOINT RightShoulder
				{
					OFFSET	-0.080363	 0.159706	-0.000306
					CHANNELS 3 Zrotation Xrotation Yrotation
					JOINT RightArm
					{
						OFFSET	 0.000000	 0.164196	 0.000000
						CHANNELS 3 Zrotation Xrotation Yrotation
						JOINT RightForeArm
						{
							OFFSET	 0.000000	 0.365611	 0.000000
							CHANNELS 3 Zrotation Xrotation Yrotation
							JOINT RightHand
							{
								OFFSET	 0.000000	 0.360648	 0.000000
								CHANNELS 3 Zrotation Xrotation Yrotation
								JOINT RightHandIndex1
								{
									OFFSET	 0.000000	 0.069977	 0.000000
									CHANNELS 3 Zrotation Xrotation Yrotation
									JOINT RightHandIndex2
									{
										OFFSET	 0.000000	 0.052305	 0.000000
										CHANNELS 3 Zrotation Xrotation Yrotation
										JOINT RightHandIndex3
										{
											OFFSET	 0.009002	 0.042196	 0.000782
											CHANNELS 3 Zrotation Xrotation Yrotation
											End Site
											{
												OFFSET	 0.009002	 0.042196	 0.000782
											}
										}
									}
								}
							}
						}
					}
				}
			}
		}
	}
}
MOTION
Frames:    9
Frame Time: 0.03333334
 0.592685	 1.102392	-0.181607	 19.582160	-17.461510	-88.550540	 156.057700	 42.213600	-3.663510	 23.658190	-77.060130	 31.230680	 49.132970	 26.654970	-51.845480	 0.171465	 43.607110	-4.264794	 149.819300	 69.047030	 14.212250	-15.879160	-72.516370	-16.376940	-55.074550	 65.694190	 81.075480	-1.645304	 33.301580	 2.847360	 4.172718	 12.795660	 0.793963	-17.096010	-2.389061	 2.912784	 17.604740	 22.546780	 9.590758	-103.285000	 4.191984	 91.141090	-4.401051	 69.311200	 16.444610	 27.211670	-1.385266	 0.928006	-20.449540	-9.526240	 30.864340	-2.782453	 1.804149	-8.328528	-6.923683	 7.664148	 1.929664	 4.963066	-4.014628	-0.346955	 11.640740	 2.939032	 2.440192	 1.091473	 7.102107	-41.949290	 88.567030	 6.658413	-91.605190	-58.900530	 41.601250	 71.022520	-75.578510	-5.121131	 6.386755	 20.912400	 6.986823	-5.784010	-3.129032	 16.431400	-2.123632	 14.264280	 21.697440	-6.404877	-8.239867	-2.131385	 0.447455
 0.643108	 1.144794	-0.181791	 15.813590	-11.377220	-74.326830	 165.157500	 18.234230	-9.220183	 8.647922	-58.484290	 15.869040	 49.421610	 36.227180	-60.406170	 0.932073	 40.593440	-5.033847	 143.176500	 53.845700	 28.674690	-10.853020	-65.405660	-11.476270	-51.470420	 61.897350	 75.260950	-1.648312	 33.348540	 2.850053	 3.581892	 10.209920	-0.926537	-15.738420	-4.033743	 1.264240	 17.435900	 18.129250	 10.915100	-101.593200	 1.457387	 91.220470	-6.603420	 70.312400	 17.966070	 22.249110	-1.157789	 0.995888	-16.592650	-10.511150	 22.874200	-2.356637	 7.005420	-8.074253	-7.004635	 8.098236	 2.016064	 4.963066	-4.014628	-0.346955	 14.656300	 3.537446	 0.707610	-1.501947	 5.590702	-42.319620	 89.205960	 2.746127	-92.038210	-62.707520	 31.328030	 81.443820	-68.915940	-4.934744	 5.917768	 18.428930	 3.722507	-10.424590	-2.913637	 16.726960	-2.462550	 14.289460	 22.159990	-6.538539	-8.239867	-2.131385	 0.447455
 0.703918	 1.154791	-0.164093	 13.377270	-7.282012	-59.550240	 166.257700	 11.717400	-0.680865	 5.474524	-45.978010	 10.110200	 59.849990	 48.085040	-82.922770	 2.298804	 37.129930	-7.505726	 136.256700	 41.754220	 42.859890	-9.442628	-62.285910	-9.703726	-46.315810	 60.704910	 69.660390	-1.665583	 33.327510	 2.887222	 2.377463	 8.545244	-2.809289	-8.093350	 0.593594	 0.740884	 9.918874	 9.813970	 11.182340	-101.494700	-1.558738	 92.408880	-3.873614	 65.779430	 13.399250	 28.895920	-1.482991	 1.265266	-13.480240	-15.931780	 13.262450	-2.857108	 15.211830	-7.515320	-7.048500	 8.236712	 2.043537	 4.963066	-4.014628	-0.346955	 16.867370	-0.127423	-1.602206	-2.388268	 1.100180	-43.757640	 88.117810	-1.735202	-91.417960	-56.326120	 22.440200	 90.063380	-60.321040	-4.596532	 5.781931	 13.497800	-5.460915	-9.121017	-2.911612	 16.594980	-2.690990	 14.344890	 22.732830	-6.712460	-8.239867	-2.131385	 0.447455
 0.788452	 1.159007	-0.155309	 10.963500	-4.358003	-48.029420	 164.437500	 14.183930	 10.015310	 5.603702	-46.643760	 10.123520	 73.652000	 46.814240	-93.293910	 1.556962	 26.171670	-7.461703	 134.668800	 35.091620	 50.207900	-7.912936	-57.952060	-7.672367	-39.605660	 56.972410	 60.929970	-1.742342	 33.003990	 3.071999	 1.001043	 7.094658	-3.548282	-0.076964	 5.665242	-0.470499	 0.651537	 3.498910	 10.178700	-101.604500	-3.259342	 95.977010	 6.137377	 60.707110	-0.691602	 36.299660	-1.810782	 1.562885	-8.140779	-27.664130	 11.515010	-3.865029	 14.497850	-7.216314	-7.095644	 8.391730	 2.072423	 4.963066	-4.014628	-0.346955	 16.608560	-6.790632	-4.294149	-0.206013	-3.807966	-44.369610	 87.482860	-5.910921	-90.763490	-44.852000	 12.425780	 92.020680	-46.658400	-3.850178	 6.008446	 12.277180	-21.037190	-1.783863	-2.909563	 16.465190	-2.915650	 14.363560	 23.135200	-6.828155	-8.239867	-2.131385	 0.447455
 0.855504	 1.182662	-0.143992	 8.643475	-3.438998	-42.583650	 163.104300	 13.601400	 14.659370	 4.983994	-43.297650	 8.633926	 74.300590	 45.753230	-89.631940	 1.397977	 23.660680	-7.474001	 150.683800	 37.368240	 30.834750	-7.572071	-56.814030	-7.044506	-47.623760	 58.685740	 67.941010	-1.866590	 32.171710	 3.467142	 0.302671	 6.328552	-4.735571	 1.035472	 6.426768	-2.147077	-1.459712	 1.479519	 9.884171	-104.530800	-8.855855	 98.504380	 15.075190	 55.549350	-10.098430	 38.459500	-1.895536	 1.675105	-14.254410	-38.405290	 0.942583	-5.047248	 14.995140	-6.760597	-7.143753	 8.556549	 2.102844	 4.963066	-4.014628	-0.346955	 15.225460	-8.099496	-7.463545	 1.474912	-3.308110	-43.818100	 88.057760	-4.131335	-91.017670	-34.170140	 6.169434	 84.890010	-35.731490	-3.093167	 5.642359	 21.584040	-29.358840	 11.271180	-2.907561	 16.339980	-3.132359	 14.378140	 23.505130	-6.933759	-8.239867	-2.131385	 0.447455
 0.905231	 1.210187	-0.132648	 6.514256	-3.297544	-39.870820	 162.874800	 11.388810	 16.790430	 4.213573	-38.551470	 6.882703	 71.685960	 44.963070	-83.242870	 1.398007	 23.660660	-7.474018	 168.578100	 36.186290	 8.866281	-6.453786	-52.521270	-5.860290	-52.420410	 57.581780	 69.940830	-1.912642	 31.235240	 3.765663	-0.092892	 5.867198	-6.119314	 0.661518	 4.671238	-3.510254	-1.756655	 1.388387	 9.865878	-107.426400	-14.614710	 100.124800	 20.391950	 52.019050	-14.946850	 39.520260	-1.934392	 1.725476	-26.720180	-46.259130	-12.478890	-6.063397	 15.599430	-6.341910	-7.186093	 8.704443	 2.130350	 4.963066	-4.014628	-0.346955	 13.666200	-7.977070	-10.113030	 2.467327	-1.543131	-42.971050	 89.045720	-1.199134	-91.500110	-27.935580	 4.500537	 76.647200	-32.737560	-2.864823	 4.883047	 33.487130	-32.526970	 22.360140	-2.905970	 16.232270	-3.318709	 14.390140	 23.818410	-7.023155	-8.239867	-2.131385	 0.447455
 0.942973	 1.235170	-0.121533	 3.645011	-3.712650	-39.238360	 164.390700	 7.056743	 16.886500	 3.419926	-32.903220	 4.962986	 70.027950	 44.428340	-77.929050	 1.398024	 23.660640	-7.474028	 176.053600	 30.390380	-2.253828	-4.909563	-44.799370	-3.906417	-47.918680	 55.254830	 63.528610	-1.626314	 29.821400	 3.615082	-0.549233	 5.248976	-7.385379	 1.481690	 4.031550	-4.680184	-3.198275	 0.093465	 10.488550	-109.084100	-19.830850	 101.589400	 23.908840	 51.064870	-19.584950	 40.763890	-1.982171	 1.727209	-45.662060	-52.480930	-29.504300	-6.822355	 15.562100	-6.063485	-7.232772	 8.874034	 2.162969	 4.963066	-4.014628	-0.346955	 11.320430	-8.732920	-11.916120	 1.767547	 0.574948	-41.471010	 90.942100	 1.171166	-92.047160	-24.896410	 2.734700	 69.548970	-29.411590	-2.601857	 4.912885	 37.138680	-30.219020	 29.334610	-2.904049	 16.116220	-3.519528	 14.403690	 24.155880	-7.119727	-8.239867	-2.131385	 0.447455
 0.970808	 1.257054	-0.111947	 0.964159	-4.129038	-38.668650	 166.280300	 2.519403	 17.056310	 2.687779	-26.958670	 2.905341	 68.317050	 44.233700	-72.721770	 1.398040	 23.660630	-7.474036	-179.835600	 23.592860	-11.319540	-3.601913	-36.090360	-2.052966	-41.880120	 52.607690	 56.226930	-1.360322	 28.468450	 3.480518	-0.916417	 4.690631	-8.686889	 2.538266	 3.916251	-5.998180	-4.410062	-1.170367	 10.807460	-110.590600	-24.857570	 102.880400	 28.182110	 50.274350	-24.453910	 40.812180	-1.981918	 1.689343	-65.372150	-53.361550	-47.644990	-7.545051	 15.525690	-5.798294	-7.277632	 9.036061	 2.194297	 4.963066	-4.014628	-0.346955	 9.043986	-9.389592	-13.666290	 1.044577	 2.594815	-40.043790	 92.773090	 3.430299	-92.646900	-23.167890	 0.666868	 62.770580	-25.949540	-2.318767	 5.217195	 39.541790	-27.870130	 35.555170	-2.902594	 16.004580	-3.712615	 14.417340	 24.480520	-7.212958	-8.239867	-2.131385	 0.447455
 0.982690	 1.266495	-0.105765	 0.656667	-4.180140	-40.022620	 166.861200	 0.292111	 15.456150	 2.113099	-21.797730	 1.748898	 66.325430	 43.877240	-68.856970	 1.398039	 23.660620	-7.474037	-179.921500	 21.367810	-14.027960	-2.997099	-31.243930	-1.082458	-39.242510	 51.350250	 53.003140	-1.283589	 27.934510	 3.432020	-1.185034	 4.231537	-9.528643	 3.579673	 3.563742	-6.363196	-6.089140	-2.107279	 11.766810	-111.183700	-27.282660	 102.788500	 29.077630	 50.418130	-24.466290	 40.895110	-1.985299	 1.621605	-67.965810	-48.783540	-50.559640	-7.537712	 15.767330	-5.751245	-7.304865	 9.082848	 2.204949	 4.963066	-4.014628	-0.346955	 7.454510	-9.932500	-13.805670	 0.714189	 2.766610	-39.108800	 92.838010	 5.338568	-93.145430	-22.582710	 1.318905	 60.745490	-24.886750	-2.230036	 4.866609	 36.439770	-24.433310	 37.379650	-2.900795	 15.897560	-3.897784	 14.430990	 24.791620	-7.302540	-8.239867	-2.131385	 0.447455
